<svg width="71" height="80" viewBox="0 0 71 80" fill="none" xmlns="http://www.w3.org/2000/svg">
<g clip-path="url(#clip0_403_997)">
<path d="M34.1901 76.081H38.0353V73.1707H35.9628L34.1901 76.081Z" fill="#2A2224"/>
<path d="M34.1901 76.081H38.0353V73.1707H35.9628L34.1901 76.081Z" fill="url(#paint0_linear_403_997)"/>
<path d="M21.9766 75.1519L26.1151 79.0625L33.4015 73.1707L32.4043 71.3896L21.9766 75.1519Z" fill="#2A2224"/>
<path d="M21.9766 75.1519L26.1151 79.0625L33.4015 73.1707L32.4043 71.3896L21.9766 75.1519Z" fill="url(#paint1_linear_403_997)"/>
<path d="M47.8765 35.0131C49.4863 34.4452 51.1352 34.2839 52.745 34.3871L56.5576 28.4825L46.8337 31.78L61.3348 13.3433L49.3168 13.8853L34.1901 47.2032L36.8948 45.5576L38.5828 45.6028L34.4638 58.8705L41.3591 50.391C40.3229 48.7777 40.1469 47.6678 40.1469 47.6678C38.6479 42.7311 41.3983 37.2911 47.8765 35.0131Z" fill="white"/>
<path d="M4.68594 10.0391L4.58167 10.0649L8.20531 13.143L7.31895 11.42L4.68594 10.0391Z" fill="#9BB9DD"/>
<path d="M45.0609 4.46362L36.7057 5.56712L36.5819 6.0253L36.9012 6.30278L36.8035 11.4395L40.6422 14.3757L34.6071 23.7522C34.6071 23.7522 38.0613 15.2276 38.2894 14.5242C38.524 13.8208 35.7802 14.1047 35.7802 14.1047C35.7802 14.1047 35.4609 12.7495 35.0373 11.0136C34.6658 12.543 34.3073 14.0724 33.9619 15.6083C33.9619 15.6147 33.9619 15.6212 33.9619 15.6276L28.5003 35.6067L25.8348 36.2004L25.9195 34.4323L14.6054 7.80638V7.79347L7.16907 9.47775L8.33567 10.4715L27.5423 47.6613L45.0609 4.46362Z" fill="#9BB9DD"/>
<path d="M46.4362 74.158C48.4174 75.81 51.1221 77.4684 53.7226 78.0105L50.8354 74.158H46.4362Z" fill="#9BB9DD"/>
<path d="M49.4211 48.7582C49.4341 48.4291 49.4733 48.1258 49.5319 47.8289C49.4472 47.4934 49.4081 47.1513 49.4211 46.79C49.5906 42.4405 53.9442 40.8982 60.5658 45.0411L61.8497 43.0665C59.6208 41.2854 53.2729 36.9359 47.7396 40.0464C44.8329 41.679 43.4121 43.9183 43.0993 46.2221C43.1319 46.4737 43.1775 46.7319 43.2296 46.9835C43.2818 47.2159 43.3404 47.4417 43.4056 47.6611C46.5339 56.7924 55.5213 54.1595 59.9531 60.3997C61.3804 62.4067 61.7324 64.2458 61.4652 65.8075C62.1951 70.215 57.9263 73.1642 55.567 73.1642C52.5299 73.1642 51.0505 71.5509 50.8223 71.3702C48.7172 69.6601 46.5861 65.188 46.5861 65.188C46.5861 65.188 44.5787 65.6333 42.819 66.8594C42.1347 67.3369 41.5547 67.8403 41.0724 68.3049L41.7567 68.292C41.7567 68.292 42.3889 69.3051 43.0406 70.2989C43.2361 70.5958 53.5401 73.19 53.5401 73.19C53.5401 73.19 53.3902 74.4096 53.5075 75.1453C53.527 75.1453 53.5401 75.1517 53.5401 75.1517C53.5401 75.1517 53.5401 75.1905 53.527 75.2614C53.5922 75.5518 53.7095 75.7454 53.9181 75.6809C54.635 75.4615 63.3031 72.2026 63.3031 72.2026L53.7291 77.9976C53.9181 78.0363 54.1071 78.075 54.2961 78.1009C59.6077 78.8494 65.6363 74.2806 67.233 68.9631C67.4285 68.3114 67.5589 67.6854 67.6241 67.0788C66.49 57.6829 49.1604 55.2824 49.4146 48.7388L49.4211 48.7582ZM63.2444 74.216C63.2444 74.216 63.2444 74.2096 63.2444 74.2031C63.29 74.1902 63.3161 74.1773 63.3161 74.1773L63.2509 74.216H63.2444Z" fill="#9BB9DD"/>
<path d="M52.3539 44.7509C54.3026 44.2346 57.1246 44.8541 60.5723 47.0095L60.8004 46.661C59.2297 45.8737 54.4264 43.6603 52.3604 44.7509H52.3539Z" fill="#9BB9DD"/>
<path d="M26.2128 51.3009L28.6568 51.0879L49.962 0.0625L26.8906 3.05033L26.9623 4.75397L31.922 6.335L26.3366 28.8179L15.6482 3.20521V3.1923V3.17294L15.6286 3.19875L0 5.99299L0.456214 7.81924L4.68597 10.0456L7.31247 11.4266L8.20534 13.1496L26.9036 49.3714L26.2128 51.3073V51.3009ZM8.33569 10.465L7.16908 9.47126L4.5817 7.27072L14.6184 4.99919V5.0121L25.926 31.638L25.8413 33.4062L28.5069 32.8125L34.7701 9.89071C34.8613 10.2715 34.9525 10.6457 35.0438 11.0007C35.4674 12.7366 35.7868 14.0917 35.7868 14.0917C35.7868 14.0917 38.5306 13.8078 38.2959 14.5112C38.0613 15.2146 34.6136 23.7393 34.6136 23.7393L40.6487 14.3628L36.81 11.4266L36.9077 6.28983L36.5884 6.01234L35.9758 5.47028L36.7122 2.76639L46.2601 1.50156L45.0675 4.44422L27.5488 47.6419L8.33569 10.465Z" fill="#2A2224"/>
<path d="M26.2128 51.3009L28.6568 51.0879L49.962 0.0625L26.8906 3.05033L26.9623 4.75397L31.922 6.335L26.3366 28.8179L15.6482 3.20521V3.1923V3.17294L15.6286 3.19875L0 5.99299L0.456214 7.81924L4.68597 10.0456L7.31247 11.4266L8.20534 13.1496L26.9036 49.3714L26.2128 51.3073V51.3009ZM8.33569 10.465L7.16908 9.47126L4.5817 7.27072L14.6184 4.99919V5.0121L25.926 31.638L25.8413 33.4062L28.5069 32.8125L34.7701 9.89071C34.8613 10.2715 34.9525 10.6457 35.0438 11.0007C35.4674 12.7366 35.7868 14.0917 35.7868 14.0917C35.7868 14.0917 38.5306 13.8078 38.2959 14.5112C38.0613 15.2146 34.6136 23.7393 34.6136 23.7393L40.6487 14.3628L36.81 11.4266L36.9077 6.28983L36.5884 6.01234L35.9758 5.47028L36.7122 2.76639L46.2601 1.50156L45.0675 4.44422L27.5488 47.6419L8.33569 10.465Z" fill="url(#paint2_linear_403_997)"/>
<path d="M64.6978 56.4893C58.1087 52.5142 50.2423 48.9004 51.5588 45.635C51.7217 45.2285 51.9955 44.9446 52.3539 44.751C54.4264 43.6604 59.2232 45.8738 60.7939 46.6611C61.1132 46.8224 61.3088 46.9257 61.3088 46.9257L67.6371 39.5884C67.4872 39.3754 67.018 38.6914 66.9397 38.5688L65.1149 39.5626C65.1149 39.5626 60.7613 36.0069 55.3649 34.7743L62.2733 25.6882L57.5091 26.34L50.6855 29.302L63.8505 12.414L46.8142 12.343L29.6475 50.9525L32.1436 50.7137L33.4275 49.8812L35.2459 48.7003L27.223 69.1763L31.1074 68.8988L43.2427 52.7207C45.0871 54.5921 48.0068 56.6829 52.6342 58.4575C66.0208 63.5878 58.0305 69.9894 54.6089 69.1376C51.1938 68.2858 47.883 61.8648 47.883 61.8648C47.883 61.8648 45.6541 61.3034 41.8936 63.6911C37.6312 66.395 35.6434 69.5635 35.6434 69.5635C35.6434 69.5635 39.4105 70.3314 40.5575 71.2736C40.6553 71.3575 40.7791 71.422 40.9095 71.4736C46.7686 76.5136 49.1278 78.7786 53.6965 79.0174C54.1332 79.0368 54.6611 79.0626 55.2476 79.0755C56.8965 79.1013 59.0342 79.011 61.1849 78.4431C64.2872 77.63 67.4351 75.8554 69.1947 72.0222C73.7569 62.0907 68.7385 58.9286 64.7043 56.4958L64.6978 56.4893ZM40.1469 47.6614C40.1469 47.6614 40.3229 48.7713 41.3592 50.3846L34.4638 58.8641L38.5828 45.5963L36.8948 45.5512L34.1901 47.1967L49.3168 13.8789L61.3348 13.3368L46.8337 31.7736L56.5576 28.476L52.745 34.3742C51.1417 34.2774 49.4928 34.4388 47.8765 35.0066C41.3983 37.2846 38.6414 42.7247 40.1469 47.6614ZM46.4362 74.1582H50.8354L53.7226 78.0107C51.1221 77.4751 48.4174 75.8102 46.4362 74.1582ZM67.6306 67.0984C67.5654 67.6985 67.4351 68.3245 67.2395 68.9827C65.6363 74.2937 59.6077 78.8625 54.3026 78.1204C54.1136 78.0946 53.9246 78.0559 53.7356 78.0172L63.3096 72.2222C63.3096 72.2222 54.635 75.4811 53.9246 75.7005C53.716 75.765 53.5987 75.5779 53.5336 75.281C53.527 75.2423 53.5205 75.2036 53.514 75.1649C53.3967 74.4292 53.5466 73.2095 53.5466 73.2095C53.5466 73.2095 43.2427 70.6154 43.0471 70.3185C42.3954 69.3247 41.7632 68.3116 41.7632 68.3116L41.0789 68.3245L39.4039 68.3632C39.4039 68.3632 40.5249 66.5176 42.8256 64.9107C44.5852 63.6846 46.5926 63.2394 46.5926 63.2394C46.5926 63.2394 48.7238 67.7114 50.8289 69.4215C51.057 69.6087 52.5429 71.2155 55.5735 71.2155C57.5678 71.2155 60.9047 69.1182 61.4717 65.8271C61.7389 64.2654 61.387 62.4263 59.9597 60.4193C55.5344 54.1791 46.547 56.8184 43.4121 47.6807C43.3469 47.4548 43.2883 47.229 43.2361 47.0031C43.1775 46.7514 43.1384 46.4998 43.1058 46.2416C42.7148 43.2925 44.0117 40.195 47.7462 38.0977C54.5829 34.2516 62.6774 41.8148 62.6774 41.8148L61.8497 43.086L60.5658 45.0607C53.9376 40.9113 49.5906 42.4536 49.4211 46.8095C49.4081 47.1645 49.4472 47.5129 49.5319 47.8485C51.1156 54.0436 68.8037 56.6184 67.6306 67.1177V67.0984Z" fill="#2A2224"/>
<path d="M64.6978 56.4893C58.1087 52.5142 50.2423 48.9004 51.5588 45.635C51.7217 45.2285 51.9955 44.9446 52.3539 44.751C54.4264 43.6604 59.2232 45.8738 60.7939 46.6611C61.1132 46.8224 61.3088 46.9257 61.3088 46.9257L67.6371 39.5884C67.4872 39.3754 67.018 38.6914 66.9397 38.5688L65.1149 39.5626C65.1149 39.5626 60.7613 36.0069 55.3649 34.7743L62.2733 25.6882L57.5091 26.34L50.6855 29.302L63.8505 12.414L46.8142 12.343L29.6475 50.9525L32.1436 50.7137L33.4275 49.8812L35.2459 48.7003L27.223 69.1763L31.1074 68.8988L43.2427 52.7207C45.0871 54.5921 48.0068 56.6829 52.6342 58.4575C66.0208 63.5878 58.0305 69.9894 54.6089 69.1376C51.1938 68.2858 47.883 61.8648 47.883 61.8648C47.883 61.8648 45.6541 61.3034 41.8936 63.6911C37.6312 66.395 35.6434 69.5635 35.6434 69.5635C35.6434 69.5635 39.4105 70.3314 40.5575 71.2736C40.6553 71.3575 40.7791 71.422 40.9095 71.4736C46.7686 76.5136 49.1278 78.7786 53.6965 79.0174C54.1332 79.0368 54.6611 79.0626 55.2476 79.0755C56.8965 79.1013 59.0342 79.011 61.1849 78.4431C64.2872 77.63 67.4351 75.8554 69.1947 72.0222C73.7569 62.0907 68.7385 58.9286 64.7043 56.4958L64.6978 56.4893ZM40.1469 47.6614C40.1469 47.6614 40.3229 48.7713 41.3592 50.3846L34.4638 58.8641L38.5828 45.5963L36.8948 45.5512L34.1901 47.1967L49.3168 13.8789L61.3348 13.3368L46.8337 31.7736L56.5576 28.476L52.745 34.3742C51.1417 34.2774 49.4928 34.4388 47.8765 35.0066C41.3983 37.2846 38.6414 42.7247 40.1469 47.6614ZM46.4362 74.1582H50.8354L53.7226 78.0107C51.1221 77.4751 48.4174 75.8102 46.4362 74.1582ZM67.6306 67.0984C67.5654 67.6985 67.4351 68.3245 67.2395 68.9827C65.6363 74.2937 59.6077 78.8625 54.3026 78.1204C54.1136 78.0946 53.9246 78.0559 53.7356 78.0172L63.3096 72.2222C63.3096 72.2222 54.635 75.4811 53.9246 75.7005C53.716 75.765 53.5987 75.5779 53.5336 75.281C53.527 75.2423 53.5205 75.2036 53.514 75.1649C53.3967 74.4292 53.5466 73.2095 53.5466 73.2095C53.5466 73.2095 43.2427 70.6154 43.0471 70.3185C42.3954 69.3247 41.7632 68.3116 41.7632 68.3116L41.0789 68.3245L39.4039 68.3632C39.4039 68.3632 40.5249 66.5176 42.8256 64.9107C44.5852 63.6846 46.5926 63.2394 46.5926 63.2394C46.5926 63.2394 48.7238 67.7114 50.8289 69.4215C51.057 69.6087 52.5429 71.2155 55.5735 71.2155C57.5678 71.2155 60.9047 69.1182 61.4717 65.8271C61.7389 64.2654 61.387 62.4263 59.9597 60.4193C55.5344 54.1791 46.547 56.8184 43.4121 47.6807C43.3469 47.4548 43.2883 47.229 43.2361 47.0031C43.1775 46.7514 43.1384 46.4998 43.1058 46.2416C42.7148 43.2925 44.0117 40.195 47.7462 38.0977C54.5829 34.2516 62.6774 41.8148 62.6774 41.8148L61.8497 43.086L60.5658 45.0607C53.9376 40.9113 49.5906 42.4536 49.4211 46.8095C49.4081 47.1645 49.4472 47.5129 49.5319 47.8485C51.1156 54.0436 68.8037 56.6184 67.6306 67.1177V67.0984Z" fill="url(#paint3_linear_403_997)"/>
</g>
<defs>
<linearGradient id="paint0_linear_403_997" x1="36.3964" y1="73.079" x2="35.8288" y2="75.7222" gradientUnits="userSpaceOnUse">
<stop stop-color="#FF8C08"/>
<stop offset="0.18" stop-color="#FF9708"/>
<stop offset="0.7" stop-color="#FFB708"/>
<stop offset="1" stop-color="#FFC308"/>
</linearGradient>
<linearGradient id="paint1_linear_403_997" x1="28.5321" y1="71.1481" x2="27.1917" y2="78.1824" gradientUnits="userSpaceOnUse">
<stop stop-color="#FF8C08"/>
<stop offset="0.18" stop-color="#FF9708"/>
<stop offset="0.7" stop-color="#FFB708"/>
<stop offset="1" stop-color="#FFC308"/>
</linearGradient>
<linearGradient id="paint2_linear_403_997" x1="28.6676" y1="-1.55046" x2="15.6055" y2="43.334" gradientUnits="userSpaceOnUse">
<stop stop-color="#FF8C08"/>
<stop offset="0.18" stop-color="#FF9708"/>
<stop offset="0.7" stop-color="#FFB708"/>
<stop offset="1" stop-color="#FFC308"/>
</linearGradient>
<linearGradient id="paint3_linear_403_997" x1="52.345" y1="10.2424" x2="29.2447" y2="63.6556" gradientUnits="userSpaceOnUse">
<stop stop-color="#FF8C08"/>
<stop offset="0.18" stop-color="#FF9708"/>
<stop offset="0.7" stop-color="#FFB708"/>
<stop offset="1" stop-color="#FFC308"/>
</linearGradient>
<clipPath id="clip0_403_997">
<rect width="71" height="79" fill="white" transform="translate(0 0.0625)"/>
</clipPath>
</defs>
</svg>
