<svg width="33" height="33" viewBox="0 0 33 33" fill="none" xmlns="http://www.w3.org/2000/svg">
<path fill-rule="evenodd" clip-rule="evenodd" d="M16.7854 32.125C25.622 32.125 32.7854 24.9616 32.7854 16.125C32.7854 7.28845 25.622 0.125 16.7854 0.125C7.94884 0.125 0.7854 7.28845 0.7854 16.125C0.7854 24.9616 7.94884 32.125 16.7854 32.125ZM21.7769 7.57848C22.0198 6.71544 21.1823 6.20511 20.4174 6.75004L9.7399 14.3567C8.91038 14.9476 9.04086 16.125 9.9359 16.125H12.7476V16.1032H18.2274L13.7624 17.6787L11.794 24.6716C11.551 25.5346 12.3885 26.0449 13.1534 25.5L23.8309 17.8934C24.6605 17.3024 24.5299 16.125 23.635 16.125H19.3711L21.7769 7.57848Z" fill="#697077"/>
</svg>
