<svg width="22" height="33" viewBox="0 0 22 33" fill="none" xmlns="http://www.w3.org/2000/svg">
<path d="M10.4005 20.1067V28.2275C10.4005 28.5388 10.2769 28.8374 10.0567 29.0574C9.83667 29.2776 9.53812 29.4012 9.22677 29.4012C8.91553 29.4012 8.61699 29.2776 8.39684 29.0574C8.17669 28.8374 8.05303 28.5388 8.05303 28.2275V20.118C8.37988 20.3567 8.77165 20.4899 9.17623 20.4999C9.6172 20.5124 10.0493 20.3737 10.4005 20.1067ZM20.397 17.7593C20.0991 17.7593 19.8134 17.8776 19.6028 18.0882C19.3922 18.2988 19.2738 18.5846 19.2738 18.8825V20.2977C19.2738 20.609 19.3975 20.9076 19.6176 21.1276C19.8377 21.3478 20.1362 21.4714 20.4475 21.4714C20.7589 21.4714 21.0574 21.3478 21.2775 21.1276C21.4976 20.9076 21.6213 20.609 21.6213 20.2977V18.9386C21.6301 18.7776 21.604 18.6165 21.5449 18.4664C21.4858 18.3164 21.3952 18.1807 21.2789 18.0688C21.1628 17.9569 21.0239 17.8714 20.8718 17.8179C20.7196 17.7645 20.5576 17.7445 20.397 17.7593ZM5.50336 23.1843C5.0992 23.1722 4.70794 23.0392 4.38016 22.8024V30.9456C4.38016 31.2585 4.50441 31.5585 4.72559 31.7796C4.94676 32.0008 5.24673 32.125 5.55952 32.125C5.87231 32.125 6.17228 32.0008 6.39345 31.7796C6.61463 31.5585 6.73888 31.2585 6.73888 30.9456V22.8586C6.3721 23.0957 5.93934 23.2098 5.50336 23.1843ZM16.7354 15.3219C16.5832 15.3143 16.4311 15.3377 16.2882 15.3908C16.1455 15.4438 16.015 15.5253 15.9045 15.6303C15.7942 15.7355 15.7065 15.8618 15.6465 16.0019C15.5867 16.142 15.5558 16.2928 15.556 16.4451V22.7013C15.556 23.0142 15.6802 23.3142 15.9014 23.5353C16.1227 23.7565 16.4226 23.8807 16.7354 23.8807C17.0482 23.8807 17.3482 23.7565 17.5693 23.5353C17.7905 23.3142 17.9147 23.0142 17.9147 22.7013V16.5237C17.9237 16.3617 17.8974 16.1996 17.8377 16.0486C17.7779 15.8977 17.6863 15.7614 17.5688 15.6493C17.4513 15.5372 17.311 15.4519 17.1575 15.3993C17.0039 15.3466 16.8407 15.3279 16.6792 15.3444L16.7354 15.3219ZM13.0063 17.7256C12.5832 17.7226 12.1715 17.5893 11.827 17.3437V25.5093C11.827 25.8222 11.9512 26.1222 12.1724 26.3433C12.3936 26.5645 12.6935 26.6887 13.0063 26.6887C13.3192 26.6887 13.619 26.5645 13.8403 26.3433C14.0615 26.1222 14.1857 25.8222 14.1857 25.5093V17.3549C13.8294 17.6203 13.3944 17.7587 12.9502 17.748L13.0063 17.7256ZM2.95369 23.9818V1.16958C2.95074 0.891506 2.83819 0.625847 2.64051 0.430264C2.44283 0.234681 2.17597 0.124989 1.89788 0.125H1.65078C1.3727 0.124989 1.10584 0.234681 0.908153 0.430264C0.71047 0.625847 0.597925 0.891506 0.594971 1.16958V23.9818C0.594971 24.2618 0.706213 24.5304 0.904211 24.7284C1.10221 24.9264 1.37077 25.0376 1.65078 25.0376H1.89788C2.17791 25.0376 2.44646 24.9264 2.64445 24.7284C2.84246 24.5304 2.95369 24.2618 2.95369 23.9818ZM5.62691 22.3195H5.37981C5.09979 22.3195 4.83124 22.2083 4.63324 22.0102C4.43524 21.8122 4.324 21.5437 4.324 21.2636V3.88772C4.32696 3.60966 4.4395 3.34398 4.63718 3.14841C4.83486 2.95283 5.10173 2.84314 5.37981 2.84315H5.62691C5.90499 2.84314 6.17185 2.95283 6.36954 3.14841C6.56722 3.34398 6.67977 3.60966 6.68272 3.88772V21.2861C6.68272 21.5661 6.57148 21.8347 6.37348 22.0327C6.17548 22.2307 5.90693 22.3419 5.62691 22.3419V22.3195ZM9.34471 19.6462H9.08637C8.80939 19.6462 8.54364 19.5362 8.34775 19.3403C8.15187 19.1444 8.04179 18.8788 8.04179 18.6017V6.58341C8.04033 6.44529 8.06628 6.30825 8.11806 6.18021C8.16984 6.05218 8.24655 5.9357 8.34371 5.83751C8.44087 5.73932 8.55656 5.66137 8.68404 5.60818C8.81152 5.55498 8.94822 5.52759 9.08637 5.5276H9.34471C9.62281 5.53056 9.88845 5.6431 10.084 5.84078C10.2797 6.03846 10.3893 6.30532 10.3893 6.58341V18.6017C10.3893 18.8788 10.2792 19.1444 10.0833 19.3403C9.88744 19.5362 9.6218 19.6462 9.34471 19.6462ZM13.0625 16.8944H12.8266C12.5485 16.8944 12.2817 16.7848 12.084 16.5891C11.8863 16.3936 11.7737 16.1279 11.7708 15.8498V9.38018C11.7616 9.23596 11.7821 9.0914 11.831 8.95538C11.8799 8.81948 11.9563 8.69491 12.0552 8.58967C12.1542 8.48431 12.2737 8.40052 12.4064 8.34324C12.5391 8.28607 12.6821 8.25664 12.8266 8.25698H13.0737C13.3537 8.25698 13.6223 8.36817 13.8203 8.56619C14.0183 8.76421 14.1295 9.03277 14.1295 9.31279V15.8274C14.131 15.967 14.1048 16.1055 14.0524 16.2348C14 16.3642 13.9225 16.482 13.8243 16.5812C13.7261 16.6804 13.6093 16.7592 13.4803 16.813C13.3515 16.8668 13.2133 16.8944 13.0737 16.8944H13.0625ZM16.7915 14.4795H16.5444C16.2644 14.4795 15.9959 14.3683 15.7978 14.1703C15.5998 13.9723 15.4886 13.7037 15.4886 13.4237V11.7501C15.4915 11.472 15.6041 11.2064 15.8018 11.0108C15.9994 10.8152 16.2663 10.7056 16.5444 10.7056H16.7915C17.0696 10.7056 17.3365 10.8152 17.5342 11.0108C17.7319 11.2064 17.8444 11.472 17.8473 11.7501V13.4237C17.8473 13.7018 17.7377 13.9687 17.5421 14.1664C17.3465 14.364 17.0809 14.4766 16.8028 14.4795H16.7915Z" fill="#697077"/>
</svg>
