<svg width="25" height="31" viewBox="0 0 25 31" fill="none" xmlns="http://www.w3.org/2000/svg">
<path d="M14.0229 5.17505V0.925049H0.622925V30.1251H14.0229V25.8751C11.2779 25.8751 8.64532 24.7846 6.70436 22.8436C4.76336 20.9026 3.67292 18.2701 3.67292 15.5251C3.67292 12.7801 4.76336 10.1475 6.70436 8.2065C8.64532 6.2655 11.2779 5.17505 14.0229 5.17505Z" fill="#697077"/>
<path d="M14.0229 5.17505V25.8751C16.7679 25.8751 19.4005 24.7846 21.3415 22.8436C23.2825 20.9026 24.3729 18.2701 24.3729 15.5251C24.3729 12.7801 23.2825 10.1475 21.3415 8.2065C19.4005 6.2655 16.7679 5.17505 14.0229 5.17505Z" fill="#697077"/>
</svg>
