<svg width="34" height="33" viewBox="0 0 34 33" fill="none" xmlns="http://www.w3.org/2000/svg">
<path d="M23.308 26.6095L1.89535 11.839C-0.274554 10.3423 0.463072 7.22588 3.16889 6.49302L25.9267 0.316307C26.4088 0.142357 26.9253 0.0858888 27.4337 0.151595C27.9419 0.217301 28.4272 0.403283 28.8492 0.694108C29.2712 0.984932 29.6178 1.37221 29.8601 1.8238C30.1024 2.27538 30.2335 2.77826 30.2426 3.29068L28.8939 24.2366C28.7339 26.7228 25.4779 28.1062 23.308 26.6095Z" fill="#697077"/>
<path d="M16.5166 30.2554L3.90171 5.58555C3.61334 5.02118 3.48646 4.38812 3.53502 3.75621C3.58359 3.1243 3.80574 2.51808 4.17695 2.0044C4.54817 1.49072 5.05404 1.08954 5.63878 0.845098C6.22352 0.600655 6.86441 0.522452 7.49077 0.619119L30.8692 4.22727C31.4074 4.31035 31.9183 4.52 32.3598 4.83898C32.8011 5.15797 33.1605 5.57718 33.4084 6.06214C33.6562 6.5471 33.7855 7.08395 33.7854 7.62858C33.7852 8.17319 33.6558 8.71002 33.4079 9.1949L22.6384 30.2566C22.3492 30.8193 21.9104 31.2915 21.3703 31.6211C20.8302 31.9507 20.2098 32.125 19.5771 32.1249C18.9444 32.1247 18.324 31.9502 17.784 31.6205C17.244 31.2906 16.8055 30.8183 16.5166 30.2554Z" fill="#697077"/>
<path d="M24.2061 8.85193L19.7173 8.125L14.2061 9.69511L16.4059 14.2106L21.5571 17.9403C21.6707 18.0216 21.7957 18.084 21.9276 18.125L23.8842 14.1102L24.2061 8.85193Z" fill="white"/>
</svg>
